<?xml version="1.0" encoding="UTF-8" standalone="no"?>
<!-- Created with Inkscape (http://www.inkscape.org/) -->

<svg
   xmlns:dc="http://purl.org/dc/elements/1.1/"
   xmlns:cc="http://creativecommons.org/ns#"
   xmlns:rdf="http://www.w3.org/1999/02/22-rdf-syntax-ns#"
   xmlns:svg="http://www.w3.org/2000/svg"
   xmlns="http://www.w3.org/2000/svg"
   xmlns:sodipodi="http://sodipodi.sourceforge.net/DTD/sodipodi-0.dtd"
   xmlns:inkscape="http://www.inkscape.org/namespaces/inkscape"
   width="49.045135mm"
   height="7.6940899mm"
   viewBox="0 0 49.045135 7.6940899"
   version="1.1"
   id="svg8"
   inkscape:version="0.92.2 (5c3e80d, 2017-08-06)"
   sodipodi:docname="wordmark.svg">
  <defs
     id="defs2" />
  <sodipodi:namedview
     id="base"
     pagecolor="#ffffff"
     bordercolor="#666666"
     borderopacity="1.0"
     inkscape:pageopacity="0.0"
     inkscape:pageshadow="2"
     inkscape:zoom="0.98994949"
     inkscape:cx="-62.451822"
     inkscape:cy="211.10289"
     inkscape:document-units="mm"
     inkscape:current-layer="text825"
     showgrid="false"
     fit-margin-top="0"
     fit-margin-left="0"
     fit-margin-right="0"
     fit-margin-bottom="0"
     inkscape:window-width="1920"
     inkscape:window-height="1017"
     inkscape:window-x="-8"
     inkscape:window-y="-8"
     inkscape:window-maximized="1" />
  <metadata
     id="metadata5">
    <rdf:RDF>
      <cc:Work
         rdf:about="">
        <dc:format>image/svg+xml</dc:format>
        <dc:type
           rdf:resource="http://purl.org/dc/dcmitype/StillImage" />
        <dc:title></dc:title>
      </cc:Work>
    </rdf:RDF>
  </metadata>
  <g
     inkscape:label="Layer 1"
     inkscape:groupmode="layer"
     id="layer1"
     transform="translate(-65.830283,-141.95304)">
    <g
       aria-label="CHESHIRE™"
       style="font-style:normal;font-variant:normal;font-weight:bold;font-stretch:normal;font-size:10.58333302px;line-height:1.25;font-family:'Fira Sans';-inkscape-font-specification:'Fira Sans Bold';letter-spacing:0px;word-spacing:0px;fill:#000000;fill-opacity:1;stroke:none;stroke-width:0.26458332"
       id="text825">
      <path
         d="m 69.132283,141.95304 q 0.719667,0 1.248834,0.20109 0.539749,0.20108 1.015999,0.60325 l -0.846666,1.00541 q -0.613833,-0.52916 -1.312333,-0.52916 -0.73025,0 -1.164167,0.635 -0.423333,0.62441 -0.423333,1.91558 0,1.28058 0.423333,1.905 0.433917,0.61383 1.195917,0.61383 0.391583,0 0.709083,-0.15875 0.328083,-0.15875 0.719667,-0.45508 l 0.783166,1.016 q -0.402167,0.40217 -0.994833,0.67733 -0.592667,0.26459 -1.30175,0.26459 -1.016,0 -1.767417,-0.4445 -0.751416,-0.4445 -1.17475,-1.31234 -0.41275,-0.87841 -0.41275,-2.10608 0,-1.19592 0.423334,-2.06375 0.433916,-0.86783 1.17475,-1.31233 0.751416,-0.45509 1.703916,-0.45509 z"
         style="fill:#55575c;fill-opacity:1;stroke-width:0.26458332"
         id="path845"
         inkscape:connector-curvature="0" />
      <path
         d="m 76.183098,146.32396 h -2.201333 v 3.14325 h -1.735667 v -7.33425 h 1.735667 v 2.83633 h 2.201333 v -2.83633 h 1.735667 v 7.33425 h -1.735667 z"
         style="fill:#55575c;fill-opacity:1;stroke-width:0.26458332"
         id="path847"
         inkscape:connector-curvature="0" />
      <path
         d="M 83.612763,143.37121 H 81.03043 v 1.75683 h 2.25425 v 1.21709 h -2.25425 v 1.87325 h 2.76225 v 1.24883 h -4.497917 v -7.33425 h 4.497917 z"
         style="fill:#55575c;fill-opacity:1;stroke-width:0.26458332"
         id="path849"
         inkscape:connector-curvature="0" />
      <path
         d="m 87.215231,141.95304 q 0.825499,0 1.428749,0.23284 0.613834,0.23283 1.11125,0.70908 l -0.804333,0.94192 q -0.751417,-0.61384 -1.608666,-0.61384 -0.455084,0 -0.719667,0.1905 -0.264583,0.17992 -0.264583,0.52917 0,0.24342 0.116416,0.40217 0.116417,0.14816 0.41275,0.28575 0.296334,0.13758 0.889,0.32808 1.121833,0.35983 1.651,0.889 0.529167,0.51858 0.529167,1.48167 0,0.68791 -0.34925,1.21708 -0.34925,0.51858 -1.005417,0.81492 -0.656167,0.28575 -1.55575,0.28575 -0.899583,0 -1.598083,-0.28575 -0.687917,-0.28575 -1.185333,-0.762 l 0.878416,-0.96309 q 0.423334,0.35984 0.867834,0.53975 0.455083,0.17992 0.98425,0.17992 0.53975,0 0.846666,-0.23283 0.3175,-0.24342 0.3175,-0.66675 0,-0.27517 -0.116417,-0.45509 -0.116416,-0.1905 -0.402166,-0.33866 -0.28575,-0.14817 -0.8255,-0.3175 -1.217083,-0.37042 -1.735667,-0.91017 -0.508,-0.53975 -0.508,-1.36525 0,-0.635 0.338667,-1.11125 0.338667,-0.48683 0.941917,-0.74083 0.60325,-0.26459 1.36525,-0.26459 z"
         style="fill:#55575c;fill-opacity:1;stroke-width:0.26458332"
         id="path851"
         inkscape:connector-curvature="0" />
      <path
         d="m 94.848626,146.32396 h -2.201334 v 3.14325 h -1.735666 v -7.33425 h 1.735666 v 2.83633 h 2.201334 v -2.83633 h 1.735666 v 7.33425 h -1.735666 z"
         style="fill:#55575c;fill-opacity:1;stroke-width:0.26458332"
         id="path853"
         inkscape:connector-curvature="0" />
      <path
         d="M 99.695956,149.46721 H 97.96029 v -7.33425 h 1.735666 z"
         style="fill:#55575c;fill-opacity:1;stroke-width:0.26458332"
         id="path855"
         inkscape:connector-curvature="0" />
      <path
         d="m 103.47388,146.66263 h -0.67734 v 2.80458 h -1.73566 v -7.33425 h 2.40241 q 1.50284,0 2.25425,0.55033 0.762,0.55034 0.762,1.68275 0,0.70909 -0.33866,1.17475 -0.33867,0.46567 -1.06892,0.80434 l 1.86267,3.12208 h -1.95792 z m -0.67734,-1.19592 h 0.73025 q 0.58209,0 0.86784,-0.26458 0.29633,-0.26459 0.29633,-0.83609 0,-0.52916 -0.3175,-0.77258 -0.30692,-0.24342 -0.9525,-0.24342 h -0.62442 z"
         style="fill:#55575c;fill-opacity:1;stroke-width:0.26458332"
         id="path857"
         inkscape:connector-curvature="0" />
      <path
         d="m 111.91078,143.37121 h -2.58234 v 1.75683 h 2.25425 v 1.21709 h -2.25425 v 1.87325 h 2.76225 v 1.24883 h -4.49791 v -7.33425 h 4.49791 z"
         style="fill:#55575c;fill-opacity:1;stroke-width:0.26458332"
         id="path859"
         inkscape:connector-curvature="0" />
      <path
         d="m 113.50664,147.76823 h -0.31044 v 0.8636 h -0.32738 v -0.8636 h -0.32173 v -0.25682 h 1.00189 z m 1.36878,0.8636 h -0.31326 l -0.0113,-0.4572 -0.003,-0.11007 q 0,-0.11288 0.0226,-0.29915 h -0.008 l -0.19756,0.75071 h -0.254 l -0.22013,-0.74789 h -0.006 q 0.0198,0.21167 0.0169,0.4064 l -0.0113,0.4572 h -0.30198 l 0.0395,-1.12042 h 0.42051 l 0.18627,0.70555 0.16369,-0.70555 h 0.43744 z"
         style="font-size:2.82222223px;fill:#55575c;fill-opacity:1"
         id="path861"
         inkscape:connector-curvature="0" />
    </g>
    <flowRoot
       xml:space="preserve"
       id="flowRoot829"
       style="font-style:normal;font-variant:normal;font-weight:bold;font-stretch:normal;font-size:40px;line-height:1.25;font-family:'Fira Sans';-inkscape-font-specification:'Fira Sans Bold';letter-spacing:0px;word-spacing:0px;fill:#000000;fill-opacity:1;stroke:none"
       transform="scale(0.26458333)"><flowRegion
         id="flowRegion831"><rect
           id="rect833"
           width="467.70062"
           height="216.17264"
           x="98.994949"
           y="139.64127" /></flowRegion><flowPara
         id="flowPara835"></flowPara></flowRoot>    <flowRoot
       xml:space="preserve"
       id="flowRoot837"
       style="font-style:normal;font-variant:normal;font-weight:bold;font-stretch:normal;font-size:40px;line-height:1.25;font-family:'Fira Sans';-inkscape-font-specification:'Fira Sans Bold';letter-spacing:0px;word-spacing:0px;fill:#000000;fill-opacity:1;stroke:none"
       transform="scale(0.26458333)"><flowRegion
         id="flowRegion839"><rect
           id="rect841"
           width="332.34018"
           height="144.45181"
           x="186.87822"
           y="496.2251" /></flowRegion><flowPara
         id="flowPara843"></flowPara></flowRoot>  </g>
</svg>
